<?xml version="1.0" encoding="utf-8"?>
<!-- Generator: Adobe Illustrator 26.1.0, SVG Export Plug-In . SVG Version: 6.00 Build 0)  -->
<svg version="1.1"
     id="svg2" inkscape:export-filename="/home/byron/art/cards/final/PNGs/2_of_clubs.png"
     inkscape:export-xdpi="215.44792" inkscape:export-ydpi="215.44792" inkscape:version="0.48.0 r9654"
     sodipodi:docname="2_of_clubs.svg"
     xmlns:inkscape="http://www.inkscape.org/namespaces/inkscape"
     xmlns:sodipodi="http://sodipodi.sourceforge.net/DTD/sodipodi-0.dtd"
     xmlns="http://www.w3.org/2000/svg" xmlns:xlink="http://www.w3.org/1999/xlink" x="0px" y="0px"
     viewBox="0 0 167.1 242.7"
     style="enable-background:new 0 0 167.1 242.7;" xml:space="preserve">
<style type="text/css">
	.st0{fill:#FFFFFF;stroke:#000000;stroke-width:0.5;}
	.st1{clip-path:url(#SVGID_00000156548140664227330260000005253243085079594430_);}
	.st2{fill:#3EB984;}
</style>
<sodipodi:namedview  bordercolor="#666666" borderopacity="1" gridtolerance="10" guidetolerance="10" id="namedview39" inkscape:current-layer="svg2" inkscape:cx="117.62976" inkscape:cy="148.16686" inkscape:pageopacity="0" inkscape:pageshadow="2" inkscape:window-height="977" inkscape:window-maximized="1" inkscape:window-width="1680" inkscape:window-x="0" inkscape:window-y="25" inkscape:zoom="2.4336873" objecttolerance="10" pagecolor="#ffffff" showgrid="false">
	</sodipodi:namedview>
<g id="Layer_x0020_1">
	<path id="path5" class="st0" d="M166.8,235.5c0,3.8-3.1,6.9-6.9,6.9H7.1c-3.8,0-6.9-3.1-6.9-6.9V7.1c0-3.8,3.1-6.9,6.9-6.9H160
		c3.8,0,6.9,3.1,6.9,6.9V235.5z"/>
	<g id="g7">
		<g id="g9">
		</g>
	</g>
	<g id="g15">
	</g>
	<g id="g19">
	</g>
	<g id="g23">
		<g id="g25">
		</g>
	</g>
	<g id="g31">
		<g id="g33">
		</g>
	</g>
</g>
<g>
	<defs>
		<rect id="SVGID_1_" x="2.6" y="1" width="163" height="239.5"/>
	</defs>
	<clipPath id="SVGID_00000160893916525235112040000011355472301373342601_">
		<use xlink:href="#SVGID_1_"  style="overflow:visible;"/>
	</clipPath>
	<g style="clip-path:url(#SVGID_00000160893916525235112040000011355472301373342601_);">
		<g>
			<polygon class="st2" points="11.4,11.4 5.4,14.9 -0.6,11.4 -0.6,4.5 5.4,1 11.4,4.5 			"/>
		</g>
		<g>
			<polygon class="st2" points="25.6,11.4 19.6,14.9 13.6,11.4 13.6,4.5 19.6,1 25.6,4.5 			"/>
		</g>
		<g>
			<polygon class="st2" points="39.8,11.4 33.8,14.9 27.8,11.4 27.8,4.5 33.8,1 39.8,4.5 			"/>
		</g>
		<g>
			<polygon class="st2" points="53.9,11.4 47.9,14.9 41.9,11.4 41.9,4.5 47.9,1 53.9,4.5 			"/>
		</g>
		<g>
			<polygon class="st2" points="68.1,11.4 62.1,14.9 56.1,11.4 56.1,4.5 62.1,1 68.1,4.5 			"/>
		</g>
		<g>
			<polygon class="st2" points="82.2,11.4 76.2,14.9 70.2,11.4 70.2,4.5 76.2,1 82.2,4.5 			"/>
		</g>
		<g>
			<polygon class="st2" points="96.4,11.4 90.4,14.9 84.4,11.4 84.4,4.5 90.4,1 96.4,4.5 			"/>
		</g>
		<g>
			<polygon class="st2" points="110.6,11.4 104.6,14.9 98.6,11.4 98.6,4.5 104.6,1 110.6,4.5 			"/>
		</g>
		<g>
			<polygon class="st2" points="124.7,11.4 118.7,14.9 112.7,11.4 112.7,4.5 118.7,1 124.7,4.5 			"/>
		</g>
		<g>
			<polygon class="st2" points="138.9,11.4 132.9,14.9 126.9,11.4 126.9,4.5 132.9,1 138.9,4.5 			"/>
		</g>
		<g>
			<polygon class="st2" points="153,11.4 147,14.9 141,11.4 141,4.5 147,1 153,4.5 			"/>
		</g>
		<g>
			<polygon class="st2" points="167.2,11.4 161.2,14.9 155.2,11.4 155.2,4.5 161.2,1 167.2,4.5 			"/>
		</g>
		<g>
			<polygon class="st2" points="4.4,25.3 -1.6,28.7 -7.6,25.3 -7.6,18.3 -1.6,14.9 4.4,18.3 			"/>
		</g>
		<g>
			<polygon class="st2" points="18.5,25.3 12.5,28.7 6.5,25.3 6.5,18.3 12.5,14.9 18.5,18.3 			"/>
		</g>
		<g>
			<polygon class="st2" points="32.7,25.3 26.7,28.7 20.7,25.3 20.7,18.3 26.7,14.9 32.7,18.3 			"/>
		</g>
		<g>
			<polygon class="st2" points="46.8,25.3 40.8,28.7 34.8,25.3 34.8,18.3 40.8,14.9 46.8,18.3 			"/>
		</g>
		<g>
			<polygon class="st2" points="61,25.3 55,28.7 49,25.3 49,18.3 55,14.9 61,18.3 			"/>
		</g>
		<g>
			<polygon class="st2" points="75.2,25.3 69.2,28.7 63.2,25.3 63.2,18.3 69.2,14.9 75.2,18.3 			"/>
		</g>
		<g>
			<polygon class="st2" points="89.3,25.3 83.3,28.7 77.3,25.3 77.3,18.3 83.3,14.9 89.3,18.3 			"/>
		</g>
		<g>
			<polygon class="st2" points="103.5,25.3 97.5,28.7 91.5,25.3 91.5,18.3 97.5,14.9 103.5,18.3 			"/>
		</g>
		<g>
			<polygon class="st2" points="117.6,25.3 111.6,28.7 105.6,25.3 105.6,18.3 111.6,14.9 117.6,18.3 			"/>
		</g>
		<g>
			<polygon class="st2" points="131.8,25.3 125.8,28.7 119.8,25.3 119.8,18.3 125.8,14.9 131.8,18.3 			"/>
		</g>
		<g>
			<polygon class="st2" points="146,25.3 140,28.7 134,25.3 134,18.3 140,14.9 146,18.3 			"/>
		</g>
		<g>
			<polygon class="st2" points="160.1,25.3 154.1,28.7 148.1,25.3 148.1,18.3 154.1,14.9 160.1,18.3 			"/>
		</g>
		<g>
			<polygon class="st2" points="174.3,25.3 168.3,28.7 162.3,25.3 162.3,18.3 168.3,14.9 174.3,18.3 			"/>
		</g>
		<g>
			<polygon class="st2" points="11.4,39.1 5.4,42.6 -0.6,39.1 -0.6,32.2 5.4,28.7 11.4,32.2 			"/>
		</g>
		<g>
			<polygon class="st2" points="25.6,39.1 19.6,42.6 13.6,39.1 13.6,32.2 19.6,28.7 25.6,32.2 			"/>
		</g>
		<g>
			<polygon class="st2" points="39.8,39.1 33.8,42.6 27.8,39.1 27.8,32.2 33.8,28.7 39.8,32.2 			"/>
		</g>
		<g>
			<polygon class="st2" points="53.9,39.1 47.9,42.6 41.9,39.1 41.9,32.2 47.9,28.7 53.9,32.2 			"/>
		</g>
		<g>
			<polygon class="st2" points="68.1,39.1 62.1,42.6 56.1,39.1 56.1,32.2 62.1,28.7 68.1,32.2 			"/>
		</g>
		<g>
			<polygon class="st2" points="82.2,39.1 76.2,42.6 70.2,39.1 70.2,32.2 76.2,28.7 82.2,32.2 			"/>
		</g>
		<g>
			<polygon class="st2" points="96.4,39.1 90.4,42.6 84.4,39.1 84.4,32.2 90.4,28.7 96.4,32.2 			"/>
		</g>
		<g>
			<polygon class="st2" points="110.6,39.1 104.6,42.6 98.6,39.1 98.6,32.2 104.6,28.7 110.6,32.2 			"/>
		</g>
		<g>
			<polygon class="st2" points="124.7,39.1 118.7,42.6 112.7,39.1 112.7,32.2 118.7,28.7 124.7,32.2 			"/>
		</g>
		<g>
			<polygon class="st2" points="138.9,39.1 132.9,42.6 126.9,39.1 126.9,32.2 132.9,28.7 138.9,32.2 			"/>
		</g>
		<g>
			<polygon class="st2" points="153,39.1 147,42.6 141,39.1 141,32.2 147,28.7 153,32.2 			"/>
		</g>
		<g>
			<polygon class="st2" points="167.2,39.1 161.2,42.6 155.2,39.1 155.2,32.2 161.2,28.7 167.2,32.2 			"/>
		</g>
		<g>
			<polygon class="st2" points="4.4,53 -1.6,56.4 -7.6,53 -7.6,46 -1.6,42.6 4.4,46 			"/>
		</g>
		<g>
			<polygon class="st2" points="18.5,53 12.5,56.4 6.5,53 6.5,46 12.5,42.6 18.5,46 			"/>
		</g>
		<g>
			<polygon class="st2" points="32.7,53 26.7,56.4 20.7,53 20.7,46 26.7,42.6 32.7,46 			"/>
		</g>
		<g>
			<polygon class="st2" points="46.8,53 40.8,56.4 34.8,53 34.8,46 40.8,42.6 46.8,46 			"/>
		</g>
		<g>
			<polygon class="st2" points="61,53 55,56.4 49,53 49,46 55,42.6 61,46 			"/>
		</g>
		<g>
			<polygon class="st2" points="75.2,53 69.2,56.4 63.2,53 63.2,46 69.2,42.6 75.2,46 			"/>
		</g>
		<g>
			<polygon class="st2" points="89.3,53 83.3,56.4 77.3,53 77.3,46 83.3,42.6 89.3,46 			"/>
		</g>
		<g>
			<polygon class="st2" points="103.5,53 97.5,56.4 91.5,53 91.5,46 97.5,42.6 103.5,46 			"/>
		</g>
		<g>
			<polygon class="st2" points="117.6,53 111.6,56.4 105.6,53 105.6,46 111.6,42.6 117.6,46 			"/>
		</g>
		<g>
			<polygon class="st2" points="131.8,53 125.8,56.4 119.8,53 119.8,46 125.8,42.6 131.8,46 			"/>
		</g>
		<g>
			<polygon class="st2" points="146,53 140,56.4 134,53 134,46 140,42.6 146,46 			"/>
		</g>
		<g>
			<polygon class="st2" points="160.1,53 154.1,56.4 148.1,53 148.1,46 154.1,42.6 160.1,46 			"/>
		</g>
		<g>
			<polygon class="st2" points="174.3,53 168.3,56.4 162.3,53 162.3,46 168.3,42.6 174.3,46 			"/>
		</g>
		<g>
			<polygon class="st2" points="11.4,66.8 5.4,70.3 -0.6,66.8 -0.6,59.9 5.4,56.4 11.4,59.9 			"/>
		</g>
		<g>
			<polygon class="st2" points="25.6,66.8 19.6,70.3 13.6,66.8 13.6,59.9 19.6,56.4 25.6,59.9 			"/>
		</g>
		<g>
			<polygon class="st2" points="39.8,66.8 33.8,70.3 27.8,66.8 27.8,59.9 33.8,56.4 39.8,59.9 			"/>
		</g>
		<g>
			<polygon class="st2" points="53.9,66.8 47.9,70.3 41.9,66.8 41.9,59.9 47.9,56.4 53.9,59.9 			"/>
		</g>
		<g>
			<polygon class="st2" points="68.1,66.8 62.1,70.3 56.1,66.8 56.1,59.9 62.1,56.4 68.1,59.9 			"/>
		</g>
		<g>
			<polygon class="st2" points="82.2,66.8 76.2,70.3 70.2,66.8 70.2,59.9 76.2,56.4 82.2,59.9 			"/>
		</g>
		<g>
			<polygon class="st2" points="96.4,66.8 90.4,70.3 84.4,66.8 84.4,59.9 90.4,56.4 96.4,59.9 			"/>
		</g>
		<g>
			<polygon class="st2" points="110.6,66.8 104.6,70.3 98.6,66.8 98.6,59.9 104.6,56.4 110.6,59.9 			"/>
		</g>
		<g>
			<polygon class="st2" points="124.7,66.8 118.7,70.3 112.7,66.8 112.7,59.9 118.7,56.4 124.7,59.9 			"/>
		</g>
		<g>
			<polygon class="st2" points="138.9,66.8 132.9,70.3 126.9,66.8 126.9,59.9 132.9,56.4 138.9,59.9 			"/>
		</g>
		<g>
			<polygon class="st2" points="153,66.8 147,70.3 141,66.8 141,59.9 147,56.4 153,59.9 			"/>
		</g>
		<g>
			<polygon class="st2" points="167.2,66.8 161.2,70.3 155.2,66.8 155.2,59.9 161.2,56.4 167.2,59.9 			"/>
		</g>
		<g>
			<polygon class="st2" points="4.4,80.7 -1.6,84.2 -7.6,80.7 -7.6,73.8 -1.6,70.3 4.4,73.8 			"/>
		</g>
		<g>
			<polygon class="st2" points="18.5,80.7 12.5,84.2 6.5,80.7 6.5,73.8 12.5,70.3 18.5,73.8 			"/>
		</g>
		<g>
			<polygon class="st2" points="32.7,80.7 26.7,84.2 20.7,80.7 20.7,73.8 26.7,70.3 32.7,73.8 			"/>
		</g>
		<g>
			<polygon class="st2" points="46.8,80.7 40.8,84.2 34.8,80.7 34.8,73.8 40.8,70.3 46.8,73.8 			"/>
		</g>
		<g>
			<polygon class="st2" points="61,80.7 55,84.2 49,80.7 49,73.8 55,70.3 61,73.8 			"/>
		</g>
		<g>
			<polygon class="st2" points="75.2,80.7 69.2,84.2 63.2,80.7 63.2,73.8 69.2,70.3 75.2,73.8 			"/>
		</g>
		<g>
			<polygon class="st2" points="89.3,80.7 83.3,84.2 77.3,80.7 77.3,73.8 83.3,70.3 89.3,73.8 			"/>
		</g>
		<g>
			<polygon class="st2" points="103.5,80.7 97.5,84.2 91.5,80.7 91.5,73.8 97.5,70.3 103.5,73.8 			"/>
		</g>
		<g>
			<polygon class="st2" points="117.6,80.7 111.6,84.2 105.6,80.7 105.6,73.8 111.6,70.3 117.6,73.8 			"/>
		</g>
		<g>
			<polygon class="st2" points="131.8,80.7 125.8,84.2 119.8,80.7 119.8,73.8 125.8,70.3 131.8,73.8 			"/>
		</g>
		<g>
			<polygon class="st2" points="146,80.7 140,84.2 134,80.7 134,73.8 140,70.3 146,73.8 			"/>
		</g>
		<g>
			<polygon class="st2" points="160.1,80.7 154.1,84.2 148.1,80.7 148.1,73.8 154.1,70.3 160.1,73.8 			"/>
		</g>
		<g>
			<polygon class="st2" points="174.3,80.7 168.3,84.2 162.3,80.7 162.3,73.8 168.3,70.3 174.3,73.8 			"/>
		</g>
		<g>
			<polygon class="st2" points="11.4,94.5 5.4,98 -0.6,94.5 -0.6,87.6 5.4,84.2 11.4,87.6 			"/>
		</g>
		<g>
			<polygon class="st2" points="25.6,94.5 19.6,98 13.6,94.5 13.6,87.6 19.6,84.2 25.6,87.6 			"/>
		</g>
		<g>
			<polygon class="st2" points="39.8,94.5 33.8,98 27.8,94.5 27.8,87.6 33.8,84.2 39.8,87.6 			"/>
		</g>
		<g>
			<polygon class="st2" points="53.9,94.5 47.9,98 41.9,94.5 41.9,87.6 47.9,84.2 53.9,87.6 			"/>
		</g>
		<g>
			<polygon class="st2" points="68.1,94.5 62.1,98 56.1,94.5 56.1,87.6 62.1,84.2 68.1,87.6 			"/>
		</g>
		<g>
			<polygon class="st2" points="82.2,94.5 76.2,98 70.2,94.5 70.2,87.6 76.2,84.2 82.2,87.6 			"/>
		</g>
		<g>
			<polygon class="st2" points="96.4,94.5 90.4,98 84.4,94.5 84.4,87.6 90.4,84.2 96.4,87.6 			"/>
		</g>
		<g>
			<polygon class="st2" points="110.6,94.5 104.6,98 98.6,94.5 98.6,87.6 104.6,84.2 110.6,87.6 			"/>
		</g>
		<g>
			<polygon class="st2" points="124.7,94.5 118.7,98 112.7,94.5 112.7,87.6 118.7,84.2 124.7,87.6 			"/>
		</g>
		<g>
			<polygon class="st2" points="138.9,94.5 132.9,98 126.9,94.5 126.9,87.6 132.9,84.2 138.9,87.6 			"/>
		</g>
		<g>
			<polygon class="st2" points="153,94.5 147,98 141,94.5 141,87.6 147,84.2 153,87.6 			"/>
		</g>
		<g>
			<polygon class="st2" points="167.2,94.5 161.2,98 155.2,94.5 155.2,87.6 161.2,84.2 167.2,87.6 			"/>
		</g>
		<g>
			<polygon class="st2" points="4.4,108.4 -1.6,111.9 -7.6,108.4 -7.6,101.5 -1.6,98 4.4,101.5 			"/>
		</g>
		<g>
			<polygon class="st2" points="18.5,108.4 12.5,111.9 6.5,108.4 6.5,101.5 12.5,98 18.5,101.5 			"/>
		</g>
		<g>
			<polygon class="st2" points="32.7,108.4 26.7,111.9 20.7,108.4 20.7,101.5 26.7,98 32.7,101.5 			"/>
		</g>
		<g>
			<polygon class="st2" points="46.8,108.4 40.8,111.9 34.8,108.4 34.8,101.5 40.8,98 46.8,101.5 			"/>
		</g>
		<g>
			<polygon class="st2" points="61,108.4 55,111.9 49,108.4 49,101.5 55,98 61,101.5 			"/>
		</g>
		<g>
			<polygon class="st2" points="75.2,108.4 69.2,111.9 63.2,108.4 63.2,101.5 69.2,98 75.2,101.5 			"/>
		</g>
		<g>
			<polygon class="st2" points="89.3,108.4 83.3,111.9 77.3,108.4 77.3,101.5 83.3,98 89.3,101.5 			"/>
		</g>
		<g>
			<polygon class="st2" points="103.5,108.4 97.5,111.9 91.5,108.4 91.5,101.5 97.5,98 103.5,101.5 			"/>
		</g>
		<g>
			<polygon class="st2" points="117.6,108.4 111.6,111.9 105.6,108.4 105.6,101.5 111.6,98 117.6,101.5 			"/>
		</g>
		<g>
			<polygon class="st2" points="131.8,108.4 125.8,111.9 119.8,108.4 119.8,101.5 125.8,98 131.8,101.5 			"/>
		</g>
		<g>
			<polygon class="st2" points="146,108.4 140,111.9 134,108.4 134,101.5 140,98 146,101.5 			"/>
		</g>
		<g>
			<polygon class="st2" points="160.1,108.4 154.1,111.9 148.1,108.4 148.1,101.5 154.1,98 160.1,101.5 			"/>
		</g>
		<g>
			<polygon class="st2" points="174.3,108.4 168.3,111.9 162.3,108.4 162.3,101.5 168.3,98 174.3,101.5 			"/>
		</g>
		<g>
			<polygon class="st2" points="11.4,122.3 5.4,125.7 -0.6,122.3 -0.6,115.3 5.4,111.9 11.4,115.3 			"/>
		</g>
		<g>
			<polygon class="st2" points="25.6,122.3 19.6,125.7 13.6,122.3 13.6,115.3 19.6,111.9 25.6,115.3 			"/>
		</g>
		<g>
			<polygon class="st2" points="39.8,122.3 33.8,125.7 27.8,122.3 27.8,115.3 33.8,111.9 39.8,115.3 			"/>
		</g>
		<g>
			<polygon class="st2" points="53.9,122.3 47.9,125.7 41.9,122.3 41.9,115.3 47.9,111.9 53.9,115.3 			"/>
		</g>
		<g>
			<polygon class="st2" points="68.1,122.3 62.1,125.7 56.1,122.3 56.1,115.3 62.1,111.9 68.1,115.3 			"/>
		</g>
		<g>
			<polygon class="st2" points="82.2,122.3 76.2,125.7 70.2,122.3 70.2,115.3 76.2,111.9 82.2,115.3 			"/>
		</g>
		<g>
			<polygon class="st2" points="96.4,122.3 90.4,125.7 84.4,122.3 84.4,115.3 90.4,111.9 96.4,115.3 			"/>
		</g>
		<g>
			<polygon class="st2" points="110.6,122.3 104.6,125.7 98.6,122.3 98.6,115.3 104.6,111.9 110.6,115.3 			"/>
		</g>
		<g>
			<polygon class="st2" points="124.7,122.3 118.7,125.7 112.7,122.3 112.7,115.3 118.7,111.9 124.7,115.3 			"/>
		</g>
		<g>
			<polygon class="st2" points="138.9,122.3 132.9,125.7 126.9,122.3 126.9,115.3 132.9,111.9 138.9,115.3 			"/>
		</g>
		<g>
			<polygon class="st2" points="153,122.3 147,125.7 141,122.3 141,115.3 147,111.9 153,115.3 			"/>
		</g>
		<g>
			<polygon class="st2" points="167.2,122.3 161.2,125.7 155.2,122.3 155.2,115.3 161.2,111.9 167.2,115.3 			"/>
		</g>
		<g>
			<polygon class="st2" points="4.4,136.1 -1.6,139.6 -7.6,136.1 -7.6,129.2 -1.6,125.7 4.4,129.2 			"/>
		</g>
		<g>
			<polygon class="st2" points="18.5,136.1 12.5,139.6 6.5,136.1 6.5,129.2 12.5,125.7 18.5,129.2 			"/>
		</g>
		<g>
			<polygon class="st2" points="32.7,136.1 26.7,139.6 20.7,136.1 20.7,129.2 26.7,125.7 32.7,129.2 			"/>
		</g>
		<g>
			<polygon class="st2" points="46.8,136.1 40.8,139.6 34.8,136.1 34.8,129.2 40.8,125.7 46.8,129.2 			"/>
		</g>
		<g>
			<polygon class="st2" points="61,136.1 55,139.6 49,136.1 49,129.2 55,125.7 61,129.2 			"/>
		</g>
		<g>
			<polygon class="st2" points="75.2,136.1 69.2,139.6 63.2,136.1 63.2,129.2 69.2,125.7 75.2,129.2 			"/>
		</g>
		<g>
			<polygon class="st2" points="89.3,136.1 83.3,139.6 77.3,136.1 77.3,129.2 83.3,125.7 89.3,129.2 			"/>
		</g>
		<g>
			<polygon class="st2" points="103.5,136.1 97.5,139.6 91.5,136.1 91.5,129.2 97.5,125.7 103.5,129.2 			"/>
		</g>
		<g>
			<polygon class="st2" points="117.6,136.1 111.6,139.6 105.6,136.1 105.6,129.2 111.6,125.7 117.6,129.2 			"/>
		</g>
		<g>
			<polygon class="st2" points="131.8,136.1 125.8,139.6 119.8,136.1 119.8,129.2 125.8,125.7 131.8,129.2 			"/>
		</g>
		<g>
			<polygon class="st2" points="146,136.1 140,139.6 134,136.1 134,129.2 140,125.7 146,129.2 			"/>
		</g>
		<g>
			<polygon class="st2" points="160.1,136.1 154.1,139.6 148.1,136.1 148.1,129.2 154.1,125.7 160.1,129.2 			"/>
		</g>
		<g>
			<polygon class="st2" points="174.3,136.1 168.3,139.6 162.3,136.1 162.3,129.2 168.3,125.7 174.3,129.2 			"/>
		</g>
		<g>
			<polygon class="st2" points="11.4,150 5.4,153.4 -0.6,150 -0.6,143 5.4,139.6 11.4,143 			"/>
		</g>
		<g>
			<polygon class="st2" points="25.6,150 19.6,153.4 13.6,150 13.6,143 19.6,139.6 25.6,143 			"/>
		</g>
		<g>
			<polygon class="st2" points="39.8,150 33.8,153.4 27.8,150 27.8,143 33.8,139.6 39.8,143 			"/>
		</g>
		<g>
			<polygon class="st2" points="53.9,150 47.9,153.4 41.9,150 41.9,143 47.9,139.6 53.9,143 			"/>
		</g>
		<g>
			<polygon class="st2" points="68.1,150 62.1,153.4 56.1,150 56.1,143 62.1,139.6 68.1,143 			"/>
		</g>
		<g>
			<polygon class="st2" points="82.2,150 76.2,153.4 70.2,150 70.2,143 76.2,139.6 82.2,143 			"/>
		</g>
		<g>
			<polygon class="st2" points="96.4,150 90.4,153.4 84.4,150 84.4,143 90.4,139.6 96.4,143 			"/>
		</g>
		<g>
			<polygon class="st2" points="110.6,150 104.6,153.4 98.6,150 98.6,143 104.6,139.6 110.6,143 			"/>
		</g>
		<g>
			<polygon class="st2" points="124.7,150 118.7,153.4 112.7,150 112.7,143 118.7,139.6 124.7,143 			"/>
		</g>
		<g>
			<polygon class="st2" points="138.9,150 132.9,153.4 126.9,150 126.9,143 132.9,139.6 138.9,143 			"/>
		</g>
		<g>
			<polygon class="st2" points="153,150 147,153.4 141,150 141,143 147,139.6 153,143 			"/>
		</g>
		<g>
			<polygon class="st2" points="167.2,150 161.2,153.4 155.2,150 155.2,143 161.2,139.6 167.2,143 			"/>
		</g>
		<g>
			<polygon class="st2" points="4.4,163.8 -1.6,167.3 -7.6,163.8 -7.6,156.9 -1.6,153.4 4.4,156.9 			"/>
		</g>
		<g>
			<polygon class="st2" points="18.5,163.8 12.5,167.3 6.5,163.8 6.5,156.9 12.5,153.4 18.5,156.9 			"/>
		</g>
		<g>
			<polygon class="st2" points="32.7,163.8 26.7,167.3 20.7,163.8 20.7,156.9 26.7,153.4 32.7,156.9 			"/>
		</g>
		<g>
			<polygon class="st2" points="46.8,163.8 40.8,167.3 34.8,163.8 34.8,156.9 40.8,153.4 46.8,156.9 			"/>
		</g>
		<g>
			<polygon class="st2" points="61,163.8 55,167.3 49,163.8 49,156.9 55,153.4 61,156.9 			"/>
		</g>
		<g>
			<polygon class="st2" points="75.2,163.8 69.2,167.3 63.2,163.8 63.2,156.9 69.2,153.4 75.2,156.9 			"/>
		</g>
		<g>
			<polygon class="st2" points="89.3,163.8 83.3,167.3 77.3,163.8 77.3,156.9 83.3,153.4 89.3,156.9 			"/>
		</g>
		<g>
			<polygon class="st2" points="103.5,163.8 97.5,167.3 91.5,163.8 91.5,156.9 97.5,153.4 103.5,156.9 			"/>
		</g>
		<g>
			<polygon class="st2" points="117.6,163.8 111.6,167.3 105.6,163.8 105.6,156.9 111.6,153.4 117.6,156.9 			"/>
		</g>
		<g>
			<polygon class="st2" points="131.8,163.8 125.8,167.3 119.8,163.8 119.8,156.9 125.8,153.4 131.8,156.9 			"/>
		</g>
		<g>
			<polygon class="st2" points="146,163.8 140,167.3 134,163.8 134,156.9 140,153.4 146,156.9 			"/>
		</g>
		<g>
			<polygon class="st2" points="160.1,163.8 154.1,167.3 148.1,163.8 148.1,156.9 154.1,153.4 160.1,156.9 			"/>
		</g>
		<g>
			<polygon class="st2" points="174.3,163.8 168.3,167.3 162.3,163.8 162.3,156.9 168.3,153.4 174.3,156.9 			"/>
		</g>
		<g>
			<polygon class="st2" points="11.4,177.7 5.4,181.2 -0.6,177.7 -0.6,170.8 5.4,167.3 11.4,170.8 			"/>
		</g>
		<g>
			<polygon class="st2" points="25.6,177.7 19.6,181.2 13.6,177.7 13.6,170.8 19.6,167.3 25.6,170.8 			"/>
		</g>
		<g>
			<polygon class="st2" points="39.8,177.7 33.8,181.2 27.8,177.7 27.8,170.8 33.8,167.3 39.8,170.8 			"/>
		</g>
		<g>
			<polygon class="st2" points="53.9,177.7 47.9,181.2 41.9,177.7 41.9,170.8 47.9,167.3 53.9,170.8 			"/>
		</g>
		<g>
			<polygon class="st2" points="68.1,177.7 62.1,181.2 56.1,177.7 56.1,170.8 62.1,167.3 68.1,170.8 			"/>
		</g>
		<g>
			<polygon class="st2" points="82.2,177.7 76.2,181.2 70.2,177.7 70.2,170.8 76.2,167.3 82.2,170.8 			"/>
		</g>
		<g>
			<polygon class="st2" points="96.4,177.7 90.4,181.2 84.4,177.7 84.4,170.8 90.4,167.3 96.4,170.8 			"/>
		</g>
		<g>
			<polygon class="st2" points="110.6,177.7 104.6,181.2 98.6,177.7 98.6,170.8 104.6,167.3 110.6,170.8 			"/>
		</g>
		<g>
			<polygon class="st2" points="124.7,177.7 118.7,181.2 112.7,177.7 112.7,170.8 118.7,167.3 124.7,170.8 			"/>
		</g>
		<g>
			<polygon class="st2" points="138.9,177.7 132.9,181.2 126.9,177.7 126.9,170.8 132.9,167.3 138.9,170.8 			"/>
		</g>
		<g>
			<polygon class="st2" points="153,177.7 147,181.2 141,177.7 141,170.8 147,167.3 153,170.8 			"/>
		</g>
		<g>
			<polygon class="st2" points="167.2,177.7 161.2,181.2 155.2,177.7 155.2,170.8 161.2,167.3 167.2,170.8 			"/>
		</g>
		<g>
			<polygon class="st2" points="4.4,191.5 -1.6,195 -7.6,191.5 -7.6,184.6 -1.6,181.2 4.4,184.6 			"/>
		</g>
		<g>
			<polygon class="st2" points="18.5,191.5 12.5,195 6.5,191.5 6.5,184.6 12.5,181.2 18.5,184.6 			"/>
		</g>
		<g>
			<polygon class="st2" points="32.7,191.5 26.7,195 20.7,191.5 20.7,184.6 26.7,181.2 32.7,184.6 			"/>
		</g>
		<g>
			<polygon class="st2" points="46.8,191.5 40.8,195 34.8,191.5 34.8,184.6 40.8,181.2 46.8,184.6 			"/>
		</g>
		<g>
			<polygon class="st2" points="61,191.5 55,195 49,191.5 49,184.6 55,181.2 61,184.6 			"/>
		</g>
		<g>
			<polygon class="st2" points="75.2,191.5 69.2,195 63.2,191.5 63.2,184.6 69.2,181.2 75.2,184.6 			"/>
		</g>
		<g>
			<polygon class="st2" points="89.3,191.5 83.3,195 77.3,191.5 77.3,184.6 83.3,181.2 89.3,184.6 			"/>
		</g>
		<g>
			<polygon class="st2" points="103.5,191.5 97.5,195 91.5,191.5 91.5,184.6 97.5,181.2 103.5,184.6 			"/>
		</g>
		<g>
			<polygon class="st2" points="117.6,191.5 111.6,195 105.6,191.5 105.6,184.6 111.6,181.2 117.6,184.6 			"/>
		</g>
		<g>
			<polygon class="st2" points="131.8,191.5 125.8,195 119.8,191.5 119.8,184.6 125.8,181.2 131.8,184.6 			"/>
		</g>
		<g>
			<polygon class="st2" points="146,191.5 140,195 134,191.5 134,184.6 140,181.2 146,184.6 			"/>
		</g>
		<g>
			<polygon class="st2" points="160.1,191.5 154.1,195 148.1,191.5 148.1,184.6 154.1,181.2 160.1,184.6 			"/>
		</g>
		<g>
			<polygon class="st2" points="174.3,191.5 168.3,195 162.3,191.5 162.3,184.6 168.3,181.2 174.3,184.6 			"/>
		</g>
		<g>
			<polygon class="st2" points="11.4,205.4 5.4,208.9 -0.6,205.4 -0.6,198.5 5.4,195 11.4,198.5 			"/>
		</g>
		<g>
			<polygon class="st2" points="25.6,205.4 19.6,208.9 13.6,205.4 13.6,198.5 19.6,195 25.6,198.5 			"/>
		</g>
		<g>
			<polygon class="st2" points="39.8,205.4 33.8,208.9 27.8,205.4 27.8,198.5 33.8,195 39.8,198.5 			"/>
		</g>
		<g>
			<polygon class="st2" points="53.9,205.4 47.9,208.9 41.9,205.4 41.9,198.5 47.9,195 53.9,198.5 			"/>
		</g>
		<g>
			<polygon class="st2" points="68.1,205.4 62.1,208.9 56.1,205.4 56.1,198.5 62.1,195 68.1,198.5 			"/>
		</g>
		<g>
			<polygon class="st2" points="82.2,205.4 76.2,208.9 70.2,205.4 70.2,198.5 76.2,195 82.2,198.5 			"/>
		</g>
		<g>
			<polygon class="st2" points="96.4,205.4 90.4,208.9 84.4,205.4 84.4,198.5 90.4,195 96.4,198.5 			"/>
		</g>
		<g>
			<polygon class="st2" points="110.6,205.4 104.6,208.9 98.6,205.4 98.6,198.5 104.6,195 110.6,198.5 			"/>
		</g>
		<g>
			<polygon class="st2" points="124.7,205.4 118.7,208.9 112.7,205.4 112.7,198.5 118.7,195 124.7,198.5 			"/>
		</g>
		<g>
			<polygon class="st2" points="138.9,205.4 132.9,208.9 126.9,205.4 126.9,198.5 132.9,195 138.9,198.5 			"/>
		</g>
		<g>
			<polygon class="st2" points="153,205.4 147,208.9 141,205.4 141,198.5 147,195 153,198.5 			"/>
		</g>
		<g>
			<polygon class="st2" points="167.2,205.4 161.2,208.9 155.2,205.4 155.2,198.5 161.2,195 167.2,198.5 			"/>
		</g>
		<g>
			<polygon class="st2" points="4.4,219.3 -1.6,222.7 -7.6,219.3 -7.6,212.3 -1.6,208.9 4.4,212.3 			"/>
		</g>
		<g>
			<polygon class="st2" points="18.5,219.3 12.5,222.7 6.5,219.3 6.5,212.3 12.5,208.9 18.5,212.3 			"/>
		</g>
		<g>
			<polygon class="st2" points="32.7,219.3 26.7,222.7 20.7,219.3 20.7,212.3 26.7,208.9 32.7,212.3 			"/>
		</g>
		<g>
			<polygon class="st2" points="46.8,219.3 40.8,222.7 34.8,219.3 34.8,212.3 40.8,208.9 46.8,212.3 			"/>
		</g>
		<g>
			<polygon class="st2" points="61,219.3 55,222.7 49,219.3 49,212.3 55,208.9 61,212.3 			"/>
		</g>
		<g>
			<polygon class="st2" points="75.2,219.3 69.2,222.7 63.2,219.3 63.2,212.3 69.2,208.9 75.2,212.3 			"/>
		</g>
		<g>
			<polygon class="st2" points="89.3,219.3 83.3,222.7 77.3,219.3 77.3,212.3 83.3,208.9 89.3,212.3 			"/>
		</g>
		<g>
			<polygon class="st2" points="103.5,219.3 97.5,222.7 91.5,219.3 91.5,212.3 97.5,208.9 103.5,212.3 			"/>
		</g>
		<g>
			<polygon class="st2" points="117.6,219.3 111.6,222.7 105.6,219.3 105.6,212.3 111.6,208.9 117.6,212.3 			"/>
		</g>
		<g>
			<polygon class="st2" points="131.8,219.3 125.8,222.7 119.8,219.3 119.8,212.3 125.8,208.9 131.8,212.3 			"/>
		</g>
		<g>
			<polygon class="st2" points="146,219.3 140,222.7 134,219.3 134,212.3 140,208.9 146,212.3 			"/>
		</g>
		<g>
			<polygon class="st2" points="160.1,219.3 154.1,222.7 148.1,219.3 148.1,212.3 154.1,208.9 160.1,212.3 			"/>
		</g>
		<g>
			<polygon class="st2" points="174.3,219.3 168.3,222.7 162.3,219.3 162.3,212.3 168.3,208.9 174.3,212.3 			"/>
		</g>
		<g>
			<polygon class="st2" points="11.4,233.1 5.4,236.6 -0.6,233.1 -0.6,226.2 5.4,222.7 11.4,226.2 			"/>
		</g>
		<g>
			<polygon class="st2" points="25.6,233.1 19.6,236.6 13.6,233.1 13.6,226.2 19.6,222.7 25.6,226.2 			"/>
		</g>
		<g>
			<polygon class="st2" points="39.8,233.1 33.8,236.6 27.8,233.1 27.8,226.2 33.8,222.7 39.8,226.2 			"/>
		</g>
		<g>
			<polygon class="st2" points="53.9,233.1 47.9,236.6 41.9,233.1 41.9,226.2 47.9,222.7 53.9,226.2 			"/>
		</g>
		<g>
			<polygon class="st2" points="68.1,233.1 62.1,236.6 56.1,233.1 56.1,226.2 62.1,222.7 68.1,226.2 			"/>
		</g>
		<g>
			<polygon class="st2" points="82.2,233.1 76.2,236.6 70.2,233.1 70.2,226.2 76.2,222.7 82.2,226.2 			"/>
		</g>
		<g>
			<polygon class="st2" points="96.4,233.1 90.4,236.6 84.4,233.1 84.4,226.2 90.4,222.7 96.4,226.2 			"/>
		</g>
		<g>
			<polygon class="st2" points="110.6,233.1 104.6,236.6 98.6,233.1 98.6,226.2 104.6,222.7 110.6,226.2 			"/>
		</g>
		<g>
			<polygon class="st2" points="124.7,233.1 118.7,236.6 112.7,233.1 112.7,226.2 118.7,222.7 124.7,226.2 			"/>
		</g>
		<g>
			<polygon class="st2" points="138.9,233.1 132.9,236.6 126.9,233.1 126.9,226.2 132.9,222.7 138.9,226.2 			"/>
		</g>
		<g>
			<polygon class="st2" points="153,233.1 147,236.6 141,233.1 141,226.2 147,222.7 153,226.2 			"/>
		</g>
		<g>
			<polygon class="st2" points="167.2,233.1 161.2,236.6 155.2,233.1 155.2,226.2 161.2,222.7 167.2,226.2 			"/>
		</g>
		<g>
			<polygon class="st2" points="4.4,247 -1.6,250.4 -7.6,247 -7.6,240 -1.6,236.6 4.4,240 			"/>
		</g>
		<g>
			<polygon class="st2" points="18.5,247 12.5,250.4 6.5,247 6.5,240 12.5,236.6 18.5,240 			"/>
		</g>
		<g>
			<polygon class="st2" points="32.7,247 26.7,250.4 20.7,247 20.7,240 26.7,236.6 32.7,240 			"/>
		</g>
		<g>
			<polygon class="st2" points="46.8,247 40.8,250.4 34.8,247 34.8,240 40.8,236.6 46.8,240 			"/>
		</g>
		<g>
			<polygon class="st2" points="61,247 55,250.4 49,247 49,240 55,236.6 61,240 			"/>
		</g>
		<g>
			<polygon class="st2" points="75.2,247 69.2,250.4 63.2,247 63.2,240 69.2,236.6 75.2,240 			"/>
		</g>
		<g>
			<polygon class="st2" points="89.3,247 83.3,250.4 77.3,247 77.3,240 83.3,236.6 89.3,240 			"/>
		</g>
		<g>
			<polygon class="st2" points="103.5,247 97.5,250.4 91.5,247 91.5,240 97.5,236.6 103.5,240 			"/>
		</g>
		<g>
			<polygon class="st2" points="117.6,247 111.6,250.4 105.6,247 105.6,240 111.6,236.6 117.6,240 			"/>
		</g>
		<g>
			<polygon class="st2" points="131.8,247 125.8,250.4 119.8,247 119.8,240 125.8,236.6 131.8,240 			"/>
		</g>
		<g>
			<polygon class="st2" points="146,247 140,250.4 134,247 134,240 140,236.6 146,240 			"/>
		</g>
		<g>
			<polygon class="st2" points="160.1,247 154.1,250.4 148.1,247 148.1,240 154.1,236.6 160.1,240 			"/>
		</g>
		<g>
			<polygon class="st2" points="174.3,247 168.3,250.4 162.3,247 162.3,240 168.3,236.6 174.3,240 			"/>
		</g>
	</g>
</g>
</svg>
